<svg xmlns="http://www.w3.org/2000/svg" xmlns:xlink="http://www.w3.org/1999/xlink" width="960" height="288" viewBox="0 0 720 216"><defs><style>*{stroke-linejoin:round;stroke-linecap:butt}</style></defs><g id="figure_1"><path id="patch_1" d="M0 216h720V0H0z" style="fill:#fff"/><g id="axes_1"><path id="patch_2" d="M58.816 173.356H709.2V26.16H58.816z" style="fill:#fff"/><path id="patch_3" d="M-105191.875 119.087H241.915v-11.895h-105433.79z" clip-path="url(#p96d9e6c368)"/><path id="patch_4" d="M-105191.875 44.745H88.38V32.851h-105280.254z" clip-path="url(#p96d9e6c368)"/><path id="patch_5" d="M-105191.875 130.981H679.637v-11.894h-105871.512z" clip-path="url(#p96d9e6c368)" style="fill:#17becf"/><path id="patch_6" d="M-105191.875 56.64H199.35V44.745h-105391.224z" clip-path="url(#p96d9e6c368)" style="fill:#17becf"/><path id="patch_7" d="M-105191.875 142.876H420.397v-11.895h-105612.272z" clip-path="url(#p96d9e6c368)" style="fill:#ff7f0e"/><path id="patch_8" d="M-105191.875 68.535H341.963V56.64h-105533.838z" clip-path="url(#p96d9e6c368)" style="fill:#ff7f0e"/><path id="patch_9" d="M-105191.875 154.77H618.185v-11.894h-105810.06z" clip-path="url(#p96d9e6c368)" style="fill:#1f77b4"/><path id="patch_10" d="M-105191.875 80.43H384.597V68.534h-105576.472z" clip-path="url(#p96d9e6c368)" style="fill:#1f77b4"/><path id="patch_11" d="M-105191.875 166.665H661.91v-11.894h-105853.785z" clip-path="url(#p96d9e6c368)" style="fill:#2ca02c"/><path id="patch_12" d="M-105191.875 92.324H242.112V80.429h-105433.987z" clip-path="url(#p96d9e6c368)" style="fill:#2ca02c"/><g id="matplotlib.axis_1"><g id="xtick_1"><g id="line2d_1"><defs><path id="mcdfcb889cb" d="M0 0v3.5" style="stroke:#000;stroke-width:.8"/></defs><use xlink:href="#mcdfcb889cb" x="108.747" y="173.356" style="stroke:#000;stroke-width:.8"/></g><g id="text_1" transform="matrix(.1 0 0 -.1 99.947 187.954)"><defs><path id="DejaVuSans-31" d="M794 531h1031v3560L703 3866v575l1116 225h631V531h1031V0H794z" transform="scale(.01563)"/><path id="DejaVuSans-30" d="M2034 4250q-487 0-733-480-245-479-245-1442 0-959 245-1439 246-480 733-480 491 0 736 480 246 480 246 1439 0 963-246 1442-245 480-736 480m0 500q785 0 1199-621 414-620 414-1801 0-1178-414-1799Q2819-91 2034-91q-784 0-1198 620-414 621-414 1799 0 1181 414 1801 414 621 1198 621" transform="scale(.01563)"/><path id="DejaVuSans-32" d="M1228 531h2203V0H469v531q359 372 979 998 621 627 780 809 303 340 423 576 121 236 121 464 0 372-261 606-261 235-680 235-297 0-627-103-329-103-704-313v638q381 153 712 231 332 78 607 78 725 0 1156-363 431-362 431-968 0-288-108-546-107-257-392-607-78-91-497-524-418-433-1181-1211" transform="scale(.01563)"/></defs><use xlink:href="#DejaVuSans-31" transform="translate(0 .766)"/><use xlink:href="#DejaVuSans-30" transform="translate(63.623 .766)"/><use xlink:href="#DejaVuSans-32" transform="matrix(.7 0 0 .7 128.203 39.047)"/></g></g><g id="xtick_2"><use xlink:href="#mcdfcb889cb" id="line2d_2" x="213.838" y="173.356" style="stroke:#000;stroke-width:.8"/><g id="text_2" transform="matrix(.1 0 0 -.1 205.038 187.954)"><defs><path id="DejaVuSans-33" d="M2597 2516q453-97 707-404 255-306 255-756 0-690-475-1069Q2609-91 1734-91q-293 0-604 58T488 141v609q262-153 574-231 313-78 654-78 593 0 904 234t311 681q0 413-289 645-289 233-804 233h-544v519h569q465 0 712 186t247 536q0 359-255 551-254 193-729 193-260 0-557-57-297-56-653-174v562q360 100 674 150t592 50q719 0 1137-327 419-326 419-882 0-388-222-655t-631-370" transform="scale(.01563)"/></defs><use xlink:href="#DejaVuSans-31" transform="translate(0 .766)"/><use xlink:href="#DejaVuSans-30" transform="translate(63.623 .766)"/><use xlink:href="#DejaVuSans-33" transform="matrix(.7 0 0 .7 128.203 39.047)"/></g></g><g id="xtick_3"><use xlink:href="#mcdfcb889cb" id="line2d_3" x="318.928" y="173.356" style="stroke:#000;stroke-width:.8"/><g id="text_3" transform="matrix(.1 0 0 -.1 310.128 187.954)"><defs><path id="DejaVuSans-34" d="M2419 4116 825 1625h1594zm-166 550h794V1625h666v-525h-666V0h-628v1100H313v609z" transform="scale(.01563)"/></defs><use xlink:href="#DejaVuSans-31" transform="translate(0 .684)"/><use xlink:href="#DejaVuSans-30" transform="translate(63.623 .684)"/><use xlink:href="#DejaVuSans-34" transform="matrix(.7 0 0 .7 128.203 38.966)"/></g></g><g id="xtick_4"><use xlink:href="#mcdfcb889cb" id="line2d_4" x="424.019" y="173.356" style="stroke:#000;stroke-width:.8"/><g id="text_4" transform="matrix(.1 0 0 -.1 415.219 187.954)"><defs><path id="DejaVuSans-35" d="M691 4666h2478v-532H1269V2991q137 47 274 70 138 23 276 23 781 0 1237-428 457-428 457-1159 0-753-469-1171Q2575-91 1722-91q-294 0-599 50Q819 9 494 109v635q281-153 581-228t634-75q541 0 856 284 316 284 316 772 0 487-316 771-315 285-856 285-253 0-505-56-251-56-513-175z" transform="scale(.01563)"/></defs><use xlink:href="#DejaVuSans-31" transform="translate(0 .684)"/><use xlink:href="#DejaVuSans-30" transform="translate(63.623 .684)"/><use xlink:href="#DejaVuSans-35" transform="matrix(.7 0 0 .7 128.203 38.966)"/></g></g><g id="xtick_5"><use xlink:href="#mcdfcb889cb" id="line2d_5" x="529.109" y="173.356" style="stroke:#000;stroke-width:.8"/><g id="text_5" transform="matrix(.1 0 0 -.1 520.309 187.954)"><defs><path id="DejaVuSans-36" d="M2113 2584q-425 0-674-291-248-290-248-796 0-503 248-796 249-292 674-292t673 292q248 293 248 796 0 506-248 796-248 291-673 291m1253 1979v-575q-238 112-480 171-242 60-480 60-625 0-955-422-329-422-376-1275 184 272 462 417 279 145 613 145 703 0 1111-427 408-426 408-1160 0-719-425-1154Q2819-91 2113-91q-810 0-1238 620-428 621-428 1799 0 1106 525 1764t1409 658q238 0 480-47t505-140" transform="scale(.01563)"/></defs><use xlink:href="#DejaVuSans-31" transform="translate(0 .766)"/><use xlink:href="#DejaVuSans-30" transform="translate(63.623 .766)"/><use xlink:href="#DejaVuSans-36" transform="matrix(.7 0 0 .7 128.203 39.047)"/></g></g><g id="xtick_6"><use xlink:href="#mcdfcb889cb" id="line2d_6" x="634.199" y="173.356" style="stroke:#000;stroke-width:.8"/><g id="text_6" transform="matrix(.1 0 0 -.1 625.4 187.954)"><defs><path id="DejaVuSans-37" d="M525 4666h3000v-269L1831 0h-659l1594 4134H525z" transform="scale(.01563)"/></defs><use xlink:href="#DejaVuSans-31" transform="translate(0 .684)"/><use xlink:href="#DejaVuSans-30" transform="translate(63.623 .684)"/><use xlink:href="#DejaVuSans-37" transform="matrix(.7 0 0 .7 128.203 38.966)"/></g></g><g id="xtick_7"><g id="line2d_7"><defs><path id="md182c7778a" d="M0 0v2" style="stroke:#000;stroke-width:.6"/></defs><use xlink:href="#md182c7778a" x="66.928" y="173.356" style="stroke:#000;stroke-width:.6"/></g></g><g id="xtick_8"><use xlink:href="#md182c7778a" id="line2d_8" x="77.112" y="173.356" style="stroke:#000;stroke-width:.6"/></g><g id="xtick_9"><use xlink:href="#md182c7778a" id="line2d_9" x="85.433" y="173.356" style="stroke:#000;stroke-width:.6"/></g><g id="xtick_10"><use xlink:href="#md182c7778a" id="line2d_10" x="92.469" y="173.356" style="stroke:#000;stroke-width:.6"/></g><g id="xtick_11"><use xlink:href="#md182c7778a" id="line2d_11" x="98.563" y="173.356" style="stroke:#000;stroke-width:.6"/></g><g id="xtick_12"><use xlink:href="#md182c7778a" id="line2d_12" x="103.939" y="173.356" style="stroke:#000;stroke-width:.6"/></g><g id="xtick_13"><use xlink:href="#md182c7778a" id="line2d_13" x="140.383" y="173.356" style="stroke:#000;stroke-width:.6"/></g><g id="xtick_14"><use xlink:href="#md182c7778a" id="line2d_14" x="158.888" y="173.356" style="stroke:#000;stroke-width:.6"/></g><g id="xtick_15"><use xlink:href="#md182c7778a" id="line2d_15" x="172.018" y="173.356" style="stroke:#000;stroke-width:.6"/></g><g id="xtick_16"><use xlink:href="#md182c7778a" id="line2d_16" x="182.202" y="173.356" style="stroke:#000;stroke-width:.6"/></g><g id="xtick_17"><use xlink:href="#md182c7778a" id="line2d_17" x="190.524" y="173.356" style="stroke:#000;stroke-width:.6"/></g><g id="xtick_18"><use xlink:href="#md182c7778a" id="line2d_18" x="197.559" y="173.356" style="stroke:#000;stroke-width:.6"/></g><g id="xtick_19"><use xlink:href="#md182c7778a" id="line2d_19" x="203.653" y="173.356" style="stroke:#000;stroke-width:.6"/></g><g id="xtick_20"><use xlink:href="#md182c7778a" id="line2d_20" x="209.029" y="173.356" style="stroke:#000;stroke-width:.6"/></g><g id="xtick_21"><use xlink:href="#md182c7778a" id="line2d_21" x="245.473" y="173.356" style="stroke:#000;stroke-width:.6"/></g><g id="xtick_22"><use xlink:href="#md182c7778a" id="line2d_22" x="263.979" y="173.356" style="stroke:#000;stroke-width:.6"/></g><g id="xtick_23"><use xlink:href="#md182c7778a" id="line2d_23" x="277.108" y="173.356" style="stroke:#000;stroke-width:.6"/></g><g id="xtick_24"><use xlink:href="#md182c7778a" id="line2d_24" x="287.293" y="173.356" style="stroke:#000;stroke-width:.6"/></g><g id="xtick_25"><use xlink:href="#md182c7778a" id="line2d_25" x="295.614" y="173.356" style="stroke:#000;stroke-width:.6"/></g><g id="xtick_26"><use xlink:href="#md182c7778a" id="line2d_26" x="302.649" y="173.356" style="stroke:#000;stroke-width:.6"/></g><g id="xtick_27"><use xlink:href="#md182c7778a" id="line2d_27" x="308.744" y="173.356" style="stroke:#000;stroke-width:.6"/></g><g id="xtick_28"><use xlink:href="#md182c7778a" id="line2d_28" x="314.119" y="173.356" style="stroke:#000;stroke-width:.6"/></g><g id="xtick_29"><use xlink:href="#md182c7778a" id="line2d_29" x="350.564" y="173.356" style="stroke:#000;stroke-width:.6"/></g><g id="xtick_30"><use xlink:href="#md182c7778a" id="line2d_30" x="369.069" y="173.356" style="stroke:#000;stroke-width:.6"/></g><g id="xtick_31"><use xlink:href="#md182c7778a" id="line2d_31" x="382.199" y="173.356" style="stroke:#000;stroke-width:.6"/></g><g id="xtick_32"><use xlink:href="#md182c7778a" id="line2d_32" x="392.383" y="173.356" style="stroke:#000;stroke-width:.6"/></g><g id="xtick_33"><use xlink:href="#md182c7778a" id="line2d_33" x="400.704" y="173.356" style="stroke:#000;stroke-width:.6"/></g><g id="xtick_34"><use xlink:href="#md182c7778a" id="line2d_34" x="407.74" y="173.356" style="stroke:#000;stroke-width:.6"/></g><g id="xtick_35"><use xlink:href="#md182c7778a" id="line2d_35" x="413.834" y="173.356" style="stroke:#000;stroke-width:.6"/></g><g id="xtick_36"><use xlink:href="#md182c7778a" id="line2d_36" x="419.21" y="173.356" style="stroke:#000;stroke-width:.6"/></g><g id="xtick_37"><use xlink:href="#md182c7778a" id="line2d_37" x="455.654" y="173.356" style="stroke:#000;stroke-width:.6"/></g><g id="xtick_38"><use xlink:href="#md182c7778a" id="line2d_38" x="474.159" y="173.356" style="stroke:#000;stroke-width:.6"/></g><g id="xtick_39"><use xlink:href="#md182c7778a" id="line2d_39" x="487.289" y="173.356" style="stroke:#000;stroke-width:.6"/></g><g id="xtick_40"><use xlink:href="#md182c7778a" id="line2d_40" x="497.474" y="173.356" style="stroke:#000;stroke-width:.6"/></g><g id="xtick_41"><use xlink:href="#md182c7778a" id="line2d_41" x="505.795" y="173.356" style="stroke:#000;stroke-width:.6"/></g><g id="xtick_42"><use xlink:href="#md182c7778a" id="line2d_42" x="512.83" y="173.356" style="stroke:#000;stroke-width:.6"/></g><g id="xtick_43"><use xlink:href="#md182c7778a" id="line2d_43" x="518.925" y="173.356" style="stroke:#000;stroke-width:.6"/></g><g id="xtick_44"><use xlink:href="#md182c7778a" id="line2d_44" x="524.3" y="173.356" style="stroke:#000;stroke-width:.6"/></g><g id="xtick_45"><use xlink:href="#md182c7778a" id="line2d_45" x="560.744" y="173.356" style="stroke:#000;stroke-width:.6"/></g><g id="xtick_46"><use xlink:href="#md182c7778a" id="line2d_46" x="579.25" y="173.356" style="stroke:#000;stroke-width:.6"/></g><g id="xtick_47"><use xlink:href="#md182c7778a" id="line2d_47" x="592.38" y="173.356" style="stroke:#000;stroke-width:.6"/></g><g id="xtick_48"><use xlink:href="#md182c7778a" id="line2d_48" x="602.564" y="173.356" style="stroke:#000;stroke-width:.6"/></g><g id="xtick_49"><use xlink:href="#md182c7778a" id="line2d_49" x="610.885" y="173.356" style="stroke:#000;stroke-width:.6"/></g><g id="xtick_50"><use xlink:href="#md182c7778a" id="line2d_50" x="617.921" y="173.356" style="stroke:#000;stroke-width:.6"/></g><g id="xtick_51"><use xlink:href="#md182c7778a" id="line2d_51" x="624.015" y="173.356" style="stroke:#000;stroke-width:.6"/></g><g id="xtick_52"><use xlink:href="#md182c7778a" id="line2d_52" x="629.391" y="173.356" style="stroke:#000;stroke-width:.6"/></g><g id="xtick_53"><use xlink:href="#md182c7778a" id="line2d_53" x="665.835" y="173.356" style="stroke:#000;stroke-width:.6"/></g><g id="xtick_54"><use xlink:href="#md182c7778a" id="line2d_54" x="684.34" y="173.356" style="stroke:#000;stroke-width:.6"/></g><g id="xtick_55"><use xlink:href="#md182c7778a" id="line2d_55" x="697.47" y="173.356" style="stroke:#000;stroke-width:.6"/></g><g id="xtick_56"><use xlink:href="#md182c7778a" id="line2d_56" x="707.655" y="173.356" style="stroke:#000;stroke-width:.6"/></g><g id="text_7" transform="matrix(.1 0 0 -.1 306.562 201.633)"><defs><path id="DejaVuSans-54" d="M-19 4666h3947v-532H2272V0h-634v4134H-19z" transform="scale(.01563)"/><path id="DejaVuSans-69" d="M603 3500h575V0H603zm0 1363h575v-729H603z" transform="scale(.01563)"/><path id="DejaVuSans-6d" d="M3328 2828q216 388 516 572t706 184q547 0 844-383 297-382 297-1088V0h-578v2094q0 503-179 746-178 244-543 244-447 0-707-297-259-296-259-809V0h-578v2094q0 506-178 748t-550 242q-441 0-701-298-259-298-259-808V0H581v3500h578v-544q197 322 472 475t653 153q382 0 649-194 267-193 395-562" transform="scale(.01563)"/><path id="DejaVuSans-65" d="M3597 1894v-281H953q38-594 358-905t892-311q331 0 642 81t618 244V178Q3153 47 2828-22t-659-69q-838 0-1327 487-489 488-489 1320 0 859 464 1363 464 505 1252 505 706 0 1117-455 411-454 411-1235m-575 169q-6 471-264 752-258 282-683 282-481 0-770-272t-333-766z" transform="scale(.01563)"/><path id="DejaVuSans-28" d="M1984 4856q-418-718-622-1422-203-703-203-1425 0-721 205-1429t620-1424h-500Q1016-109 783 600T550 2009q0 697 231 1403 232 707 703 1444z" transform="scale(.01563)"/><path id="DejaVuSans-6c" d="M603 4863h575V0H603z" transform="scale(.01563)"/><path id="DejaVuSans-6f" d="M1959 3097q-462 0-731-361t-269-989 267-989q268-361 733-361 460 0 728 362 269 363 269 988 0 622-269 986-268 364-728 364m0 487q750 0 1178-488 429-487 429-1349 0-859-429-1349Q2709-91 1959-91q-753 0-1180 489-426 490-426 1349 0 862 426 1349 427 488 1180 488" transform="scale(.01563)"/><path id="DejaVuSans-67" d="M2906 1791q0 625-258 968-257 344-723 344-462 0-720-344-258-343-258-968 0-622 258-966t720-344q466 0 723 344 258 344 258 966m575-1357q0-893-397-1329-396-436-1215-436-303 0-572 45t-522 139v559q253-137 500-202 247-66 503-66 566 0 847 295t281 892v285q-178-310-456-463T1784 0Q1141 0 747 490 353 981 353 1791q0 812 394 1302 394 491 1037 491 388 0 666-153t456-462v531h575z" transform="scale(.01563)"/><path id="DejaVuSans-73" d="M2834 3397v-544q-243 125-506 187-262 63-544 63-428 0-642-131t-214-394q0-200 153-314t616-217l197-44q612-131 870-370t258-667q0-488-386-773Q2250-91 1575-91q-281 0-586 55T347 128v594q319-166 628-249 309-82 613-82 406 0 624 139 219 139 219 392 0 234-158 359-157 125-692 241l-200 47q-534 112-772 345-237 233-237 639 0 494 350 762 350 269 994 269 318 0 599-47 282-46 519-140" transform="scale(.01563)"/><path id="DejaVuSans-63" d="M3122 3366v-538q-244 135-489 202t-495 67q-560 0-870-355-309-354-309-995t309-996q310-354 870-354 250 0 495 67t489 202V134Q2881 22 2623-34q-257-57-548-57-791 0-1257 497-465 497-465 1341 0 856 470 1346 471 491 1290 491 265 0 518-55 253-54 491-163" transform="scale(.01563)"/><path id="DejaVuSans-61" d="M2194 1759q-697 0-966-159t-269-544q0-306 202-486 202-179 548-179 479 0 768 339t289 901v128zm1147 238V0h-575v531q-197-318-491-470T1556-91q-537 0-855 302-317 302-317 808 0 590 395 890 396 300 1180 300h807v57q0 397-261 614t-733 217q-300 0-585-72-284-72-546-216v532q315 122 612 182 297 61 578 61 760 0 1135-394 375-393 375-1193" transform="scale(.01563)"/><path id="DejaVuSans-2c" d="M750 794h659V256L897-744H494L750 256z" transform="scale(.01563)"/><path id="DejaVuSans-72" d="M2631 2963q-97 56-211 82-114 27-251 27-488 0-749-317t-261-911V0H581v3500h578v-544q182 319 472 473 291 155 707 155 59 0 131-8 72-7 159-23z" transform="scale(.01563)"/><path id="DejaVuSans-6e" d="M3513 2113V0h-575v2094q0 497-194 743-194 247-581 247-466 0-735-297-269-296-269-809V0H581v3500h578v-544q207 316 486 472 280 156 646 156 603 0 912-373 310-373 310-1098" transform="scale(.01563)"/><path id="DejaVuSans-64" d="M2906 2969v1894h575V0h-575v525q-181-312-458-464-276-152-664-152-634 0-1033 506-398 507-398 1332t398 1331q399 506 1033 506 388 0 664-152 277-151 458-463M947 1747q0-634 261-995t717-361 718 361q263 361 263 995t-263 995q-262 361-718 361t-717-361-261-995" transform="scale(.01563)"/><path id="DejaVuSans-29" d="M513 4856h500q468-737 701-1444 233-706 233-1403 0-700-233-1409T1013-844H513q415 716 620 1424t205 1429q0 722-205 1425-205 704-620 1422" transform="scale(.01563)"/></defs><use xlink:href="#DejaVuSans-54"/><use xlink:href="#DejaVuSans-69" transform="translate(57.959)"/><use xlink:href="#DejaVuSans-6d" transform="translate(85.742)"/><use xlink:href="#DejaVuSans-65" transform="translate(183.154)"/><use xlink:href="#DejaVuSans-28" transform="translate(276.465)"/><use xlink:href="#DejaVuSans-6c" transform="translate(315.479)"/><use xlink:href="#DejaVuSans-6f" transform="translate(343.262)"/><use xlink:href="#DejaVuSans-67" transform="translate(404.443)"/><use xlink:href="#DejaVuSans-73" transform="translate(499.707)"/><use xlink:href="#DejaVuSans-63" transform="translate(551.807)"/><use xlink:href="#DejaVuSans-61" transform="translate(606.787)"/><use xlink:href="#DejaVuSans-6c" transform="translate(668.066)"/><use xlink:href="#DejaVuSans-65" transform="translate(695.85)"/><use xlink:href="#DejaVuSans-2c" transform="translate(757.373)"/><use xlink:href="#DejaVuSans-6d" transform="translate(820.947)"/><use xlink:href="#DejaVuSans-69" transform="translate(918.36)"/><use xlink:href="#DejaVuSans-63" transform="translate(946.143)"/><use xlink:href="#DejaVuSans-72" transform="translate(1001.123)"/><use xlink:href="#DejaVuSans-6f" transform="translate(1039.986)"/><use xlink:href="#DejaVuSans-73" transform="translate(1101.168)"/><use xlink:href="#DejaVuSans-65" transform="translate(1153.268)"/><use xlink:href="#DejaVuSans-63" transform="translate(1214.791)"/><use xlink:href="#DejaVuSans-6f" transform="translate(1269.771)"/><use xlink:href="#DejaVuSans-6e" transform="translate(1330.953)"/><use xlink:href="#DejaVuSans-64" transform="translate(1394.332)"/><use xlink:href="#DejaVuSans-73" transform="translate(1457.809)"/><use xlink:href="#DejaVuSans-29" transform="translate(1509.908)"/></g></g><g id="matplotlib.axis_2"><g id="ytick_1"><g id="line2d_57"><defs><path id="m414980c85b" d="M0 0h-3.5" style="stroke:#000;stroke-width:.8"/></defs><use xlink:href="#m414980c85b" x="58.816" y="136.929" style="stroke:#000;stroke-width:.8"/></g><g id="text_8" transform="scale(.1 -.1)rotate(45 2163.566 -664.128)"><defs><path id="DejaVuSans-46" d="M628 4666h2681v-532H1259V2759h1850v-531H1259V0H628z" transform="scale(.01563)"/><path id="DejaVuSans-4d" d="M628 4666h941l1190-3175 1197 3175h941V0h-616v4097L3078 897h-634L1241 4097V0H628z" transform="scale(.01563)"/><path id="DejaVuSans-76" d="M191 3500h609L1894 563l1094 2937h609L2284 0h-781z" transform="scale(.01563)"/></defs><use xlink:href="#DejaVuSans-54"/><use xlink:href="#DejaVuSans-54" transform="translate(59.334)"/><use xlink:href="#DejaVuSans-46" transform="translate(120.418)"/><use xlink:href="#DejaVuSans-4d" transform="translate(177.938)"/><use xlink:href="#DejaVuSans-61" transform="translate(296.004)"/><use xlink:href="#DejaVuSans-76" transform="translate(357.283)"/><use xlink:href="#DejaVuSans-67" transform="translate(416.463)"/></g></g><g id="ytick_2"><use xlink:href="#m414980c85b" id="line2d_58" x="58.816" y="62.587" style="stroke:#000;stroke-width:.8"/><g id="text_9" transform="scale(.1 -.1)rotate(45 1242.069 -234.197)"><defs><path id="DejaVuSans-42" d="M1259 2228V519h1013q509 0 754 211 246 211 246 645 0 438-246 645-245 208-754 208zm0 1919V2741h935q462 0 688 173 227 174 227 530 0 353-227 528-226 175-688 175zm-631 519h1613q722 0 1112-300 391-300 391-853 0-429-200-682t-588-315q466-100 724-418 258-317 258-792 0-625-425-966Q3088 0 2303 0H628z" transform="scale(.01563)"/></defs><use xlink:href="#DejaVuSans-54"/><use xlink:href="#DejaVuSans-42" transform="translate(61.084)"/><use xlink:href="#DejaVuSans-4d" transform="translate(129.688)"/><use xlink:href="#DejaVuSans-61" transform="translate(247.754)"/><use xlink:href="#DejaVuSans-76" transform="translate(309.033)"/><use xlink:href="#DejaVuSans-67" transform="translate(368.213)"/></g></g></g><path id="patch_13" d="M58.816 173.356V26.16" style="fill:none;stroke:#000;stroke-width:.8;stroke-linejoin:miter;stroke-linecap:square"/><path id="patch_14" d="M709.2 173.356V26.16" style="fill:none;stroke:#000;stroke-width:.8;stroke-linejoin:miter;stroke-linecap:square"/><path id="patch_15" d="M58.816 173.356H709.2" style="fill:none;stroke:#000;stroke-width:.8;stroke-linejoin:miter;stroke-linecap:square"/><path id="patch_16" d="M58.816 26.16H709.2" style="fill:none;stroke:#000;stroke-width:.8;stroke-linejoin:miter;stroke-linecap:square"/><g id="text_10" transform="matrix(.08 0 0 -.08 246.265 115.347)"><defs><path id="DejaVuSans-2e" d="M684 794h660V0H684z" transform="scale(.01563)"/><path id="DejaVuSans-39" d="M703 97v575q238-113 481-172 244-59 479-59 625 0 954 420 330 420 377 1277-181-269-460-413-278-144-615-144-700 0-1108 423-408 424-408 1159 0 718 425 1152 425 435 1131 435 810 0 1236-621 427-620 427-1801 0-1103-524-1761Q2575-91 1691-91q-238 0-482 47Q966 3 703 97m1256 1978q425 0 673 290 249 291 249 798 0 503-249 795-248 292-673 292t-673-292-248-795q0-507 248-798 248-290 673-290" transform="scale(.01563)"/></defs><use xlink:href="#DejaVuSans-31"/><use xlink:href="#DejaVuSans-2e" transform="translate(63.623)"/><use xlink:href="#DejaVuSans-39" transform="translate(95.41)"/><use xlink:href="#DejaVuSans-6d" transform="translate(159.033)"/><use xlink:href="#DejaVuSans-73" transform="translate(256.445)"/></g><g id="text_11" style="fill:#fff" transform="matrix(.08 0 0 -.08 223.769 115.347)"><defs><path id="DejaVuSans-78" d="M3513 3500 2247 1797 3578 0h-678L1881 1375 863 0H184l1360 1831L300 3500h678l928-1247 928 1247z" transform="scale(.01563)"/></defs><use xlink:href="#DejaVuSans-31"/><use xlink:href="#DejaVuSans-78" transform="translate(63.623)"/></g><g id="text_12" transform="matrix(.08 0 0 -.08 92.729 41.006)"><defs><path id="DejaVuSans-3bc" d="M544-1331v4831h575V1325q0-453 215-685 216-231 638-231 462 0 695 262 233 263 233 788v2041h575V806q0-187 54-276 55-89 171-89 28 0 78 17t138 55V50q-128-72-243-106-114-35-223-35-216 0-344 122t-175 372q-156-247-383-371-226-123-532-123-319 0-543 122-223 122-354 366v-1728z" transform="scale(.01563)"/></defs><use xlink:href="#DejaVuSans-36"/><use xlink:href="#DejaVuSans-34" transform="translate(63.623)"/><use xlink:href="#DejaVuSans-3bc" transform="translate(127.246)"/><use xlink:href="#DejaVuSans-73" transform="translate(190.87)"/></g><g id="text_13" style="fill:#fff" transform="matrix(.08 0 0 -.08 70.232 41.006)"><use xlink:href="#DejaVuSans-31"/><use xlink:href="#DejaVuSans-78" transform="translate(63.623)"/></g><g id="text_14" transform="matrix(.08 0 0 -.08 683.987 127.242)"><use xlink:href="#DejaVuSans-32"/><use xlink:href="#DejaVuSans-37" transform="translate(63.623)"/><use xlink:href="#DejaVuSans-73" transform="translate(127.246)"/></g><g id="text_15" style="fill:#fff" transform="matrix(.08 0 0 -.08 641.13 127.242)"><defs><path id="DejaVuSans-38" d="M2034 2216q-450 0-708-241-257-241-257-662 0-422 257-663 258-241 708-241t709 242q260 243 260 662 0 421-258 662-257 241-711 241m-631 268q-406 100-633 378-226 279-226 679 0 559 398 884 399 325 1092 325 697 0 1094-325t397-884q0-400-227-679-226-278-629-378 456-106 710-416 255-309 255-755 0-679-414-1042Q2806-91 2034-91q-771 0-1186 362-414 363-414 1042 0 446 256 755 257 310 713 416m-231 997q0-362 226-565 227-203 636-203 407 0 636 203 230 203 230 565 0 363-230 566-229 203-636 203-409 0-636-203-226-203-226-566" transform="scale(.01563)"/></defs><use xlink:href="#DejaVuSans-31"/><use xlink:href="#DejaVuSans-34" transform="translate(63.623)"/><use xlink:href="#DejaVuSans-36" transform="translate(127.246)"/><use xlink:href="#DejaVuSans-32" transform="translate(190.87)"/><use xlink:href="#DejaVuSans-38" transform="translate(254.492)"/><use xlink:href="#DejaVuSans-78" transform="translate(318.115)"/></g><g id="text_16" transform="matrix(.08 0 0 -.08 203.699 52.9)"><use xlink:href="#DejaVuSans-37"/><use xlink:href="#DejaVuSans-32" transform="translate(63.623)"/><use xlink:href="#DejaVuSans-38" transform="translate(127.246)"/><use xlink:href="#DejaVuSans-3bc" transform="translate(190.87)"/><use xlink:href="#DejaVuSans-73" transform="translate(254.492)"/></g><g id="text_17" style="fill:#fff" transform="matrix(.08 0 0 -.08 176.113 52.9)"><use xlink:href="#DejaVuSans-31"/><use xlink:href="#DejaVuSans-31" transform="translate(63.623)"/><use xlink:href="#DejaVuSans-78" transform="translate(127.246)"/></g><g id="text_18" transform="matrix(.08 0 0 -.08 424.747 139.136)"><use xlink:href="#DejaVuSans-39"/><use xlink:href="#DejaVuSans-32" transform="translate(63.623)"/><use xlink:href="#DejaVuSans-6d" transform="translate(127.246)"/><use xlink:href="#DejaVuSans-73" transform="translate(224.658)"/></g><g id="text_19" style="fill:#fff" transform="matrix(.08 0 0 -.08 397.16 139.136)"><use xlink:href="#DejaVuSans-35"/><use xlink:href="#DejaVuSans-30" transform="translate(63.623)"/><use xlink:href="#DejaVuSans-78" transform="translate(127.246)"/></g><g id="text_20" transform="matrix(.08 0 0 -.08 346.313 64.795)"><use xlink:href="#DejaVuSans-31"/><use xlink:href="#DejaVuSans-37" transform="translate(63.623)"/><use xlink:href="#DejaVuSans-6d" transform="translate(127.246)"/><use xlink:href="#DejaVuSans-73" transform="translate(224.658)"/></g><g id="text_21" style="fill:#fff" transform="matrix(.08 0 0 -.08 313.637 64.795)"><use xlink:href="#DejaVuSans-32"/><use xlink:href="#DejaVuSans-35" transform="translate(63.623)"/><use xlink:href="#DejaVuSans-39" transform="translate(127.246)"/><use xlink:href="#DejaVuSans-78" transform="translate(190.87)"/></g><g id="text_22" transform="matrix(.08 0 0 -.08 622.534 151.03)"><use xlink:href="#DejaVuSans-37"/><use xlink:href="#DejaVuSans-2e" transform="translate(63.623)"/><use xlink:href="#DejaVuSans-30" transform="translate(95.41)"/><use xlink:href="#DejaVuSans-73" transform="translate(159.033)"/></g><g id="text_23" style="fill:#fff" transform="matrix(.08 0 0 -.08 584.768 151.03)"><use xlink:href="#DejaVuSans-33"/><use xlink:href="#DejaVuSans-38" transform="translate(63.623)"/><use xlink:href="#DejaVuSans-30" transform="translate(127.246)"/><use xlink:href="#DejaVuSans-36" transform="translate(190.87)"/><use xlink:href="#DejaVuSans-78" transform="translate(254.492)"/></g><g id="text_24" transform="matrix(.08 0 0 -.08 388.947 76.69)"><use xlink:href="#DejaVuSans-34"/><use xlink:href="#DejaVuSans-32" transform="translate(63.623)"/><use xlink:href="#DejaVuSans-6d" transform="translate(127.246)"/><use xlink:href="#DejaVuSans-73" transform="translate(224.658)"/></g><g id="text_25" style="fill:#fff" transform="matrix(.08 0 0 -.08 356.27 76.69)"><use xlink:href="#DejaVuSans-36"/><use xlink:href="#DejaVuSans-35" transform="translate(63.623)"/><use xlink:href="#DejaVuSans-39" transform="translate(127.246)"/><use xlink:href="#DejaVuSans-78" transform="translate(190.87)"/></g><g id="text_26" transform="matrix(.08 0 0 -.08 666.26 162.925)"><use xlink:href="#DejaVuSans-31"/><use xlink:href="#DejaVuSans-38" transform="translate(63.623)"/><use xlink:href="#DejaVuSans-73" transform="translate(127.246)"/></g><g id="text_27" style="fill:#fff" transform="matrix(.08 0 0 -.08 628.493 162.925)"><use xlink:href="#DejaVuSans-39"/><use xlink:href="#DejaVuSans-39" transform="translate(63.623)"/><use xlink:href="#DejaVuSans-32" transform="translate(127.246)"/><use xlink:href="#DejaVuSans-30" transform="translate(190.87)"/><use xlink:href="#DejaVuSans-78" transform="translate(254.492)"/></g><g id="text_28" transform="matrix(.08 0 0 -.08 246.462 88.584)"><use xlink:href="#DejaVuSans-31"/><use xlink:href="#DejaVuSans-2e" transform="translate(63.623)"/><use xlink:href="#DejaVuSans-39" transform="translate(95.41)"/><use xlink:href="#DejaVuSans-6d" transform="translate(159.033)"/><use xlink:href="#DejaVuSans-73" transform="translate(256.445)"/></g><g id="text_29" style="fill:#fff" transform="matrix(.08 0 0 -.08 218.876 88.584)"><use xlink:href="#DejaVuSans-32"/><use xlink:href="#DejaVuSans-39" transform="translate(63.623)"/><use xlink:href="#DejaVuSans-78" transform="translate(127.246)"/></g><g id="text_30" transform="matrix(.12 0 0 -.12 208.793 20.16)"><defs><path id="DejaVuSans-74" d="M1172 4494v-994h1184v-447H1172V1153q0-428 117-550t477-122h590V0h-590q-666 0-919 248-253 249-253 905v1900H172v447h422v994z" transform="scale(.01563)"/><path id="DejaVuSans-6b" d="M581 4863h578V1991l1716 1509h734L1753 1863 3688 0h-750L1159 1709V0H581z" transform="scale(.01563)"/><path id="DejaVuSans-77" d="M269 3500h575l719-2731 715 2731h678l719-2731 716 2731h575L4050 0h-678l-753 2869L1863 0h-679z" transform="scale(.01563)"/></defs><use xlink:href="#DejaVuSans-54"/><use xlink:href="#DejaVuSans-69" transform="translate(57.959)"/><use xlink:href="#DejaVuSans-6d" transform="translate(85.742)"/><use xlink:href="#DejaVuSans-65" transform="translate(183.154)"/><use xlink:href="#DejaVuSans-54" transform="translate(276.465)"/><use xlink:href="#DejaVuSans-6f" transform="translate(320.549)"/><use xlink:href="#DejaVuSans-46" transform="translate(413.518)"/><use xlink:href="#DejaVuSans-69" transform="translate(463.787)"/><use xlink:href="#DejaVuSans-72" transform="translate(491.57)"/><use xlink:href="#DejaVuSans-73" transform="translate(532.684)"/><use xlink:href="#DejaVuSans-74" transform="translate(584.783)"/><use xlink:href="#DejaVuSans-4d" transform="translate(655.78)"/><use xlink:href="#DejaVuSans-61" transform="translate(742.059)"/><use xlink:href="#DejaVuSans-73" transform="translate(803.338)"/><use xlink:href="#DejaVuSans-6b" transform="translate(855.438)"/><use xlink:href="#DejaVuSans-28" transform="translate(945.135)"/><use xlink:href="#DejaVuSans-54" transform="translate(984.148)"/><use xlink:href="#DejaVuSans-54" transform="translate(1043.482)"/><use xlink:href="#DejaVuSans-46" transform="translate(1104.566)"/><use xlink:href="#DejaVuSans-4d" transform="translate(1162.086)"/><use xlink:href="#DejaVuSans-29" transform="translate(1248.365)"/><use xlink:href="#DejaVuSans-61" transform="translate(1319.166)"/><use xlink:href="#DejaVuSans-6e" transform="translate(1380.445)"/><use xlink:href="#DejaVuSans-64" transform="translate(1443.824)"/><use xlink:href="#DejaVuSans-54" transform="translate(1539.088)"/><use xlink:href="#DejaVuSans-69" transform="translate(1597.047)"/><use xlink:href="#DejaVuSans-6d" transform="translate(1624.83)"/><use xlink:href="#DejaVuSans-65" transform="translate(1722.242)"/><use xlink:href="#DejaVuSans-42" transform="translate(1815.553)"/><use xlink:href="#DejaVuSans-65" transform="translate(1884.156)"/><use xlink:href="#DejaVuSans-74" transform="translate(1945.68)"/><use xlink:href="#DejaVuSans-77" transform="translate(1984.889)"/><use xlink:href="#DejaVuSans-65" transform="translate(2066.676)"/><use xlink:href="#DejaVuSans-65" transform="translate(2128.2)"/><use xlink:href="#DejaVuSans-6e" transform="translate(2189.723)"/><use xlink:href="#DejaVuSans-4d" transform="translate(2284.889)"/><use xlink:href="#DejaVuSans-61" transform="translate(2371.168)"/><use xlink:href="#DejaVuSans-73" transform="translate(2432.447)"/><use xlink:href="#DejaVuSans-6b" transform="translate(2484.547)"/><use xlink:href="#DejaVuSans-73" transform="translate(2542.457)"/><use xlink:href="#DejaVuSans-28" transform="translate(2626.344)"/><use xlink:href="#DejaVuSans-54" transform="translate(2665.357)"/><use xlink:href="#DejaVuSans-42" transform="translate(2726.441)"/><use xlink:href="#DejaVuSans-4d" transform="translate(2795.045)"/><use xlink:href="#DejaVuSans-29" transform="translate(2881.324)"/></g><g id="legend_1"><path id="patch_17" d="M595.181 107.55H702.2q2 0 2-2V33.16q0-2-2-2H595.181q-2 0-2 2v72.39q0 2 2 2z" style="fill:#fff;opacity:.8;stroke:#ccc;stroke-linejoin:miter"/><path id="patch_18" d="M597.181 42.758h20v-7h-20z"/><g id="text_31" transform="matrix(.1 0 0 -.1 625.181 42.758)"><defs><path id="DejaVuSans-4c" d="M628 4666h631V531h2272V0H628z" transform="scale(.01563)"/><path id="DejaVuSans-47" d="M3809 666v1253H2778v519h1656V434q-365-259-806-392-440-133-940-133-1094 0-1712 639-617 640-617 1780 0 1144 617 1783 618 639 1712 639 456 0 867-113 411-112 758-331v-672q-350 297-744 447t-828 150q-857 0-1287-478-429-478-429-1425 0-944 429-1422 430-478 1287-478 334 0 596 58 263 58 472 180" transform="scale(.01563)"/><path id="DejaVuSans-75" d="M544 1381v2119h575V1403q0-497 193-746 194-248 582-248 465 0 735 297 271 297 271 810v1984h575V0h-575v538q-209-319-486-474-276-155-642-155-603 0-916 375-312 375-312 1097m1447 2203" transform="scale(.01563)"/></defs><use xlink:href="#DejaVuSans-4c"/><use xlink:href="#DejaVuSans-4c" transform="translate(55.713)"/><use xlink:href="#DejaVuSans-47" transform="translate(111.426)"/><use xlink:href="#DejaVuSans-75" transform="translate(188.916)"/><use xlink:href="#DejaVuSans-69" transform="translate(252.295)"/><use xlink:href="#DejaVuSans-64" transform="translate(280.078)"/><use xlink:href="#DejaVuSans-61" transform="translate(343.555)"/><use xlink:href="#DejaVuSans-6e" transform="translate(404.834)"/><use xlink:href="#DejaVuSans-63" transform="translate(468.213)"/><use xlink:href="#DejaVuSans-65" transform="translate(523.193)"/></g><path id="patch_19" d="M597.181 57.437h20v-7h-20z" style="fill:#17becf"/><g id="text_32" transform="matrix(.1 0 0 -.1 625.181 57.437)"><defs><path id="DejaVuSans-58" d="M403 4666h678l1160-1735 1165 1735h678L2584 2425 4184 0h-678L2194 1984 872 0H191l1665 2491z" transform="scale(.01563)"/></defs><use xlink:href="#DejaVuSans-58"/><use xlink:href="#DejaVuSans-47" transform="translate(68.506)"/><use xlink:href="#DejaVuSans-72" transform="translate(145.996)"/><use xlink:href="#DejaVuSans-61" transform="translate(187.11)"/><use xlink:href="#DejaVuSans-6d" transform="translate(248.389)"/><use xlink:href="#DejaVuSans-6d" transform="translate(345.8)"/><use xlink:href="#DejaVuSans-61" transform="translate(443.213)"/><use xlink:href="#DejaVuSans-72" transform="translate(504.492)"/></g><path id="patch_20" d="M597.181 72.115h20v-7h-20z" style="fill:#ff7f0e"/><g id="text_33" transform="matrix(.1 0 0 -.1 625.181 72.115)"><defs><path id="DejaVuSans-70" d="M1159 525v-1856H581v4831h578v-531q182 312 458 463 277 152 661 152 638 0 1036-506 399-506 399-1331T3314 415Q2916-91 2278-91q-384 0-661 152-276 152-458 464m1957 1222q0 634-261 995t-717 361q-457 0-718-361t-261-995 261-995 718-361q456 0 717 361t261 995" transform="scale(.01563)"/></defs><use xlink:href="#DejaVuSans-6c"/><use xlink:href="#DejaVuSans-6c" transform="translate(27.783)"/><use xlink:href="#DejaVuSans-61" transform="translate(55.566)"/><use xlink:href="#DejaVuSans-6d" transform="translate(116.846)"/><use xlink:href="#DejaVuSans-61" transform="translate(214.258)"/><use xlink:href="#DejaVuSans-2e" transform="translate(275.537)"/><use xlink:href="#DejaVuSans-63" transform="translate(307.324)"/><use xlink:href="#DejaVuSans-70" transform="translate(362.305)"/><use xlink:href="#DejaVuSans-70" transform="translate(425.781)"/></g><path id="patch_21" d="M597.181 86.793h20v-7h-20z" style="fill:#1f77b4"/><g id="text_34" transform="matrix(.1 0 0 -.1 625.181 86.793)"><use xlink:href="#DejaVuSans-58"/><use xlink:href="#DejaVuSans-47" transform="translate(68.506)"/><use xlink:href="#DejaVuSans-72" transform="translate(145.996)"/><use xlink:href="#DejaVuSans-61" transform="translate(187.11)"/><use xlink:href="#DejaVuSans-6d" transform="translate(248.389)"/><use xlink:href="#DejaVuSans-6d" transform="translate(345.8)"/><use xlink:href="#DejaVuSans-61" transform="translate(443.213)"/><use xlink:href="#DejaVuSans-72" transform="translate(504.492)"/><use xlink:href="#DejaVuSans-2e" transform="translate(536.48)"/><use xlink:href="#DejaVuSans-63" transform="translate(568.268)"/><use xlink:href="#DejaVuSans-70" transform="translate(623.248)"/><use xlink:href="#DejaVuSans-70" transform="translate(686.725)"/></g><path id="patch_22" d="M597.181 101.47h20v-7h-20z" style="fill:#2ca02c"/><g id="text_35" transform="matrix(.1 0 0 -.1 625.181 101.47)"><defs><path id="DejaVuSans-4f" d="M2522 4238q-688 0-1093-513-404-512-404-1397 0-881 404-1394 405-512 1093-512 687 0 1089 512 402 513 402 1394 0 885-402 1397-402 513-1089 513m0 512q981 0 1568-658 588-658 588-1764 0-1103-588-1761Q3503-91 2522-91q-984 0-1574 656-589 657-589 1763t589 1764q590 658 1574 658" transform="scale(.01563)"/></defs><use xlink:href="#DejaVuSans-4f"/><use xlink:href="#DejaVuSans-75" transform="translate(78.71)"/><use xlink:href="#DejaVuSans-74" transform="translate(142.09)"/><use xlink:href="#DejaVuSans-6c" transform="translate(181.299)"/><use xlink:href="#DejaVuSans-69" transform="translate(209.082)"/><use xlink:href="#DejaVuSans-6e" transform="translate(236.865)"/><use xlink:href="#DejaVuSans-65" transform="translate(300.244)"/><use xlink:href="#DejaVuSans-73" transform="translate(361.768)"/></g></g></g></g><defs><clipPath id="p96d9e6c368"><path d="M58.816 26.16H709.2v147.196H58.816z"/></clipPath></defs></svg>